<?xml version="1.0" encoding="UTF-8" standalone="no"?>
<svg
   xmlns:dc="http://purl.org/dc/elements/1.1/"
   xmlns:cc="http://creativecommons.org/ns#"
   xmlns:rdf="http://www.w3.org/1999/02/22-rdf-syntax-ns#"
   xmlns:svg="http://www.w3.org/2000/svg"
   xmlns="http://www.w3.org/2000/svg"
   xmlns:sodipodi="http://sodipodi.sourceforge.net/DTD/sodipodi-0.dtd"
   xmlns:inkscape="http://www.inkscape.org/namespaces/inkscape"
   width="480pt"
   height="290pt"
   viewBox="0 0 480 290"
   version="1.1"
   id="svg3396"
   inkscape:version="0.91 r13725"
   sodipodi:docname="SVGlogoNoName.svg"
   inkscape:export-filename="/home/gui/Downloads/logo_files_dragon/SVGlogoNoName.png"
   inkscape:export-xdpi="90"
   inkscape:export-ydpi="90">
  <metadata
     id="metadata3408">
    <rdf:RDF>
      <cc:Work
         rdf:about="">
        <dc:format>image/svg+xml</dc:format>
        <dc:type
           rdf:resource="http://purl.org/dc/dcmitype/StillImage" />
        <dc:title />
      </cc:Work>
    </rdf:RDF>
  </metadata>
  <defs
     id="defs3406" />
  <sodipodi:namedview
     pagecolor="#ffffff"
     bordercolor="#666666"
     borderopacity="1"
     objecttolerance="10"
     gridtolerance="10"
     guidetolerance="10"
     inkscape:pageopacity="0"
     inkscape:pageshadow="2"
     inkscape:window-width="1400"
     inkscape:window-height="791"
     id="namedview3404"
     showgrid="false"
     inkscape:zoom="1.622069"
     inkscape:cx="205.67602"
     inkscape:cy="181.25"
     inkscape:window-x="0"
     inkscape:window-y="31"
     inkscape:window-maximized="1"
     inkscape:current-layer="svg3396" />
  <g
     id="surface2"
     transform="matrix(0.58425688,0,0,0.5400959,51.931777,18.396164)">
    <path
       style="fill:#b32117;fill-opacity:1;fill-rule:evenodd;stroke:none"
       d="m 208.75,140.25 1.14844,-4.89844 0.30078,4.19922 c 2.19922,3.09766 3.43359,5.76563 3.69922,8 0.26953,2.23438 0.25,3.71484 -0.0469,4.44922 -0.80078,-0.60156 -1.58594,-1.23438 -2.35156,-1.89844 -1.93359,-1.66797 -3.73438,-3.46875 -5.39844,-5.40234 L 208.75,140.25 m 21.14844,-41 c 0.20312,0.132812 1.5,0.535156 3.90234,1.19922 2.43359,0.69922 4.86719,0.86719 7.30078,0.5 -0.33594,0.43359 -1.93359,1.16797 -4.80078,2.19922 -2.83594,1 -4.96875,-0.29688 -6.40234,-3.89844 m 74.65234,30.19922 c -0.10156,-2.89844 -0.75,-5.16406 -1.94922,-6.80078 -1.16797,-1.63281 -2.35156,-2.78125 -3.55078,-3.44922 0.16406,-1.13281 0.36719,-2.30078 0.59766,-3.5 0.30078,-1.43359 0.60156,-3 0.90234,-4.69922 0.26563,-1.63281 0.46484,-3.31641 0.59766,-5.05078 0.0664,-0.69922 0.10156,-1.38281 0.10156,-2.05078 1.86719,3.0664 3.69922,6.15234 5.5,9.25 -1.89844,-5.79688 -3.85156,-11.56641 -5.85156,-17.296878 -0.23047,-1.96875 -0.59766,-3.953124 -1.09766,-5.953124 0.33203,0.234374 0.64844,0.484374 0.94922,0.75 3.33203,2.769531 6.58203,5.71875 9.75,8.851562 -2.03516,-3.933594 -4.23438,-7.816406 -6.60156,-11.648438 -1.19922,-1.902343 -2.56641,-3.769531 -4.09766,-5.601562 -1.19922,-1.464844 -2.63281,-2.867188 -4.30078,-4.199219 0.19922,0.09766 0.41797,0.199219 0.64844,0.300781 4.40234,1.964844 8.80078,4.03125 13.20312,6.199219 -3.5664,-3.300781 -7.23437,-6.550781 -11,-9.75 -3.33594,-2.902343 -7.03515,-5.515625 -11.10156,-7.851562 -0.89844,-0.933594 -1.83203,-1.847657 -2.80078,-2.75 -0.13281,-0.09766 -0.26563,-0.214844 -0.39844,-0.347657 0.19922,0 0.39844,0 0.59766,0 4.23437,0 8.41797,0.683594 12.55078,2.046876 -3.5,-2.664063 -7.4336,-4.730469 -11.80078,-6.199219 -3.59766,-1.199219 -7.31641,-2.117188 -11.14844,-2.75 -0.80078,-0.464844 -1.60156,-0.898438 -2.39844,-1.300781 0.59766,-0.164063 1.23047,-0.316407 1.89844,-0.449219 4,-0.664063 8.14844,-1.265625 12.44922,-1.800781 C 282.13281,52.566406 277.93359,51.765625 273.60156,51 c -4.43359,-0.535156 -8.88672,-0.417969 -13.35156,0.351562 -0.56641,-0.136718 -1.13281,-0.269531 -1.69922,-0.402343 3.30078,-2.097657 6.84766,-3.699219 10.64844,-4.800781 -4.4336,-0.164063 -8.83203,0.335937 -13.19922,1.5 -2.46484,0.636718 -4.86719,1.234374 -7.19922,1.800781 -1.96875,-0.164063 -3.90234,-0.25 -5.80078,-0.25 3.93359,-2.832031 8.13281,-5.28125 12.60156,-7.347657 C 250.5,42.683594 245.5,44 240.60156,45.800781 235.80078,47.535156 231.06641,49.433594 226.39844,51.5 226.60156,51.234375 226.80078,50.949219 227,50.648438 230.03516,46.785156 233.53516,43.234375 237.5,40 c -2.36719,1 -4.64844,2.148438 -6.85156,3.449219 -2.23047,1.234375 -4.41407,2.632812 -6.54688,4.199219 -1.10156,0.835937 -2.13672,1.75 -3.10156,2.75 -0.96484,1 -1.85156,1.984374 -2.64844,2.953124 -0.66797,0.730469 -1.3164,1.414063 -1.95312,2.046876 C 213.26562,57 210.48437,58.683594 208.05078,60.449219 208.25,59.714844 208.46484,59 208.69922,58.300781 c 0.73437,-2.265625 1.76562,-4.382812 3.10156,-6.351562 1.33203,-1.964844 3.06641,-3.648438 5.19922,-5.050781 -2.43359,0.734374 -4.68359,1.933593 -6.75,3.601562 -2.03516,1.699219 -3.78516,3.648438 -5.25,5.851562 -2.83203,4.464844 -5.35156,8.847657 -7.55078,13.148438 l 0.25,0.05078 c -1.39844,1.5 -2.73438,3.050781 -4,4.648438 0.13281,-1 0.30078,-1.984375 0.5,-2.949219 0.40234,-1.601562 0.85156,-3.234375 1.35156,-4.898438 0.5,-1.636718 1.05078,-3.25 1.64844,-4.851562 1.13281,-3.234375 2.68359,-6.300781 4.65234,-9.199219 -2.53515,2.464844 -4.71875,5.214844 -6.55078,8.25 -0.93359,1.5 -1.81641,3.03125 -2.65234,4.597657 -0.83203,1.5 -1.63282,3.085937 -2.39844,4.75 -1.43359,3.402343 -2.56641,6.835937 -3.39844,10.300781 -0.76953,3.035156 -1.41797,6.117187 -1.95312,9.25 -0.33203,0.835937 -0.63282,1.667969 -0.89844,2.5 -0.13281,-0.898438 -0.25,-1.816407 -0.35156,-2.75 -0.69922,-7.03125 -0.33203,-14.132813 1.10156,-21.300781 -2.80078,6.734374 -4.56641,13.835937 -5.30078,21.300781 -0.53125,6.5 -0.11719,13.015622 1.25,19.550782 -0.46485,-0.60156 -0.89844,-1.19922 -1.30078,-1.80078 -1.4336,-2.16406 -2.54688,-4.55078 -3.34766,-7.14844 -0.76562,-2.601562 -1.31641,-5.300781 -1.65234,-8.101562 -0.36328,2.765625 -0.5,5.585937 -0.39844,8.449222 0.13281,2.90234 0.68359,5.76953 1.64844,8.60156 0.96875,2.83203 2.25,5.51563 3.85156,8.05078 0.73437,1.13281 1.5,2.25 2.30078,3.34766 0.30078,1.96875 0.68359,3.91797 1.14844,5.85156 -1.53125,-0.30078 -3.23438,-0.46484 -5.09766,-0.5 -1.90234,-0.0352 -3.40234,0.33203 -4.5,1.10156 -1.20312,1.66406 -0.68359,4.79688 1.54688,9.39844 2.23437,4.63281 4.41797,8.03516 6.55078,10.19922 -0.0664,0.13281 -0.96485,0.13281 -2.69922,0 -1.73438,-0.13281 -3.86719,-1.26563 -6.39844,-3.39844 L 167,143.69922 l -1.35156,4.10156 2.70312,-1.35156 c 0.0664,0.0664 0.48047,0.21875 1.25,0.44922 0.76563,0.23437 1.54688,0 2.34766,-0.69922 l 1.30078,1.15234 -6.64844,2.5 -3.20312,5.75 0.70312,3.09766 0.84766,-2.39844 c 0.60156,0.43359 1.78515,-0.86719 3.55078,-3.90234 l 4.10156,0.20312 -2.90234,2 -1.30078,6.34766 3.55078,2.30078 -0.55078,-2 c 0.10156,-0.0664 0.28515,-0.61719 0.55078,-1.64844 0.26562,-1.03515 0.11719,-2.16797 -0.44922,-3.40234 0.0664,0.10156 0.41797,0.13281 1.05078,0.10156 0.63281,-0.0352 1.21484,-0.65234 1.75,-1.85156 l 0.59766,6.19922 3.95312,2.20312 L 177.75,161 c 0.10156,-0.0352 0.31641,-0.46484 0.64844,-1.30078 0.30078,-0.83203 0.0508,-1.86719 -0.75,-3.09766 -0.69922,-1.23437 -0.51563,-2.33594 0.55078,-3.30078 1.0664,-0.96875 1.71875,-1.46875 1.94922,-1.5 0.0352,-0.16797 0.98437,-0.61719 2.85156,-1.35156 1.89844,-0.69922 4.44922,-0.66406 7.64844,0.10156 l -1.75,-2.05078 3.65234,-0.0508 c -0.16797,0.13281 -1.30078,-0.38281 -3.40234,-1.55078 -2.09766,-1.16407 -4.16407,-3.75 -6.19922,-7.75 l -3.55078,-2.25 4.85156,1.35156 2.85156,-0.60156 c 3.83203,8.10156 9.13281,15.10156 15.89844,21 2.19922,1.90234 4.51562,3.66797 6.94922,5.30078 -1.33203,0.10156 -2.69922,0.0859 -4.09766,-0.0508 -5.33594,-0.56641 -10.66797,-1.84766 -16,-3.84766 4.56641,3.23438 9.59766,5.88281 15.09766,7.94922 2.80078,1 5.78515,1.60156 8.94922,1.80078 1.90234,0.0664 3.85156,-0.0664 5.85156,-0.40234 1.19922,0.5664 2.43359,1.0664 3.69922,1.5 -0.80078,0.30078 -1.58203,0.5664 -2.34766,0.80078 -2.73437,0.86719 -5.53515,1.40234 -8.40234,1.60156 -2.89844,0.19922 -5.76563,-0.21875 -8.59766,-1.25 2.53125,1.69922 5.34766,2.81641 8.44922,3.34766 3.06641,0.53515 6.14844,0.68359 9.25,0.45312 4.96484,-0.46875 9.76563,-1.15234 14.39844,-2.05078 0.13281,0 0.25,0 0.35156,0 2.56641,0.16406 5.18359,0.18359 7.84766,0.0508 -0.56641,0.46485 -1.13282,0.91406 -1.69922,1.34766 -1.19922,0.90234 -2.48438,1.65234 -3.84766,2.25 -1.43359,0.63281 -2.90234,1.19922 -4.40234,1.69922 -3.03125,0.93359 -6.13281,1.73437 -9.30078,2.40234 3.20312,0.0312 6.43359,-0.0859 9.70312,-0.35156 1.66406,-0.16406 3.31641,-0.41406 4.94922,-0.75 1.69922,-0.36719 3.34766,-0.89844 4.94922,-1.59766 3.76562,-1.76953 7.21484,-3.85156 10.35156,-6.25 0.26563,-0.0664 0.53125,-0.11719 0.79688,-0.15234 3.30078,-0.73438 6.53515,-1.80078 9.70312,-3.19922 -0.10156,0.16797 -0.20312,0.31641 -0.30078,0.44922 -0.73437,1.13281 -1.5,2.25 -2.30078,3.35156 -0.80078,1.13281 -1.64844,2.18359 -2.55078,3.14844 -1.89844,1.93359 -4.06641,3.63281 -6.5,5.10156 2.69922,-0.80078 5.30078,-1.96875 7.80078,-3.5 1.23437,-0.80078 2.39844,-1.65234 3.5,-2.55078 1.10156,-0.89844 2.18359,-1.83203 3.25,-2.80078 2.16797,-1.9336 4.14844,-4.16406 5.94922,-6.69922 0.66797,-0.93359 1.26562,-1.96484 1.80078,-3.10156 1.53516,-1.26563 2.94922,-2.59766 4.25,-4 -0.0352,1.40234 -0.18359,2.85156 -0.44922,4.35156 -1.16797,5.39844 -2.94922,10.73437 -5.35156,16 3.5664,-4.43359 6.66797,-9.33203 9.30078,-14.69922 1.33203,-2.73437 2.19922,-5.75 2.60156,-9.05078 0.19922,-1.69922 0.0977,-3.46484 -0.30078,-5.30078 -0.0664,-0.23438 -0.13281,-0.46485 -0.19922,-0.69922 0.39844,-1.06641 0.75,-2.16797 1.04688,-3.30078 0.23437,0.73437 0.46875,1.46875 0.70312,2.19922 1.39844,5.23437 1.96485,10.66797 1.69922,16.30078 1.66406,-5.36719 2.48438,-10.98438 2.44922,-16.84766 -0.0352,-2.93359 -0.48438,-5.93359 -1.35156,-9 -0.5,-1.63672 -1.25,-3.26953 -2.25,-4.90234 -0.0664,-1.09766 -0.14844,-2.16406 -0.25,-3.19922 -0.0977,-0.80078 -0.23047,-1.61719 -0.39844,-2.44922 3.33203,3.30078 5.69922,7.31641 7.10156,12.05078 -0.0351,-5.16797 -1.36719,-10.11719 -4,-14.85156 -1.26953,-2.33203 -2.80078,-4.53516 -4.60156,-6.60156 -0.96484,-1.13281 -2.05078,-2.19922 -3.25,-3.19922 -0.60156,-1.03125 -1.25,-2.03125 -1.94922,-3 -0.16797,-0.19922 -0.33594,-0.39844 -0.5,-0.59766 1.69922,0.4336 3.36719,0.96485 5,1.59766 2.56641,1 4.91406,2.40234 7.05078,4.19922 -1.63672,-2.29688 -3.63672,-4.29688 -6,-6 -2.0664,-1.5 -4.23437,-2.83203 -6.5,-4 0.76563,-2.23047 1.51563,-4.04688 2.25,-5.44922 1.16406,-1.30078 2.73047,-2.347658 4.69922,-3.148439 1.93359,-0.800781 3.01563,-1.21875 3.25,-1.25 l -4.10156,-0.5 3.10156,-1.851562 c -2.53516,0.402343 -4.93359,0.01563 -7.19922,-1.148438 -2.26953,-1.132812 -4.01953,-2.167969 -5.25,-3.101562 -1.03515,-0.964844 -1.38672,-2.183594 -1.05078,-3.648438 0.30078,-1.5 0.51563,-2.335937 0.64844,-2.5 2.0664,-2.234375 2.90234,-3.351562 2.5,-3.351562 L 280.75,81.75 279.25,79.449219 275.30078,78.898438 274,84.601562 c -0.13281,-0.800781 -0.51563,-1.734374 -1.14844,-2.800781 -0.66797,-1.035156 -1.05078,-1.601562 -1.15234,-1.699219 0.16797,-2.835937 0.0351,-4.269531 -0.39844,-4.300781 l 2,-2 -3.55078,0.648438 -1.39844,5.199219 2.59766,8.25 c -2,-0.832032 -3.25,-1.082032 -3.75,-0.75 -0.19922,-0.863282 -0.75,-1.664063 -1.64844,-2.398438 -0.93359,-0.765625 -1.46875,-1.167969 -1.60156,-1.199219 l -0.0977,-3.652343 -1.95312,3.300781 1.95312,5.652343 6.29688,2.5 c -1.03125,0.132813 -1.58203,0.632813 -1.64844,1.5 -0.0664,0.898438 -0.0664,1.398438 0,1.5 -1.93359,-0.835937 -3.13281,-1.101562 -3.60156,-0.800781 l -1.59766,-1.851562 0.69922,2.949219 3.55078,2.453124 5.94922,-3.453124 5.39844,4.800781 c -3.19922,1.835941 -5.66407,3.585941 -7.39844,5.250001 -0.19922,-0.0977 -0.41797,-0.18359 -0.64844,-0.25 -0.40234,-0.26563 -0.8164,-0.5 -1.25,-0.69922 -1.5,-0.76562 -3,-1.39844 -4.5,-1.89844 -2.93359,-1.066404 -6.60156,-1.636716 -11,-1.703122 3.63281,-2.898438 5.51563,-5.683594 5.64844,-8.347657 0.13281,-2.667969 0.0664,-4.101562 -0.19922,-4.300781 0.33203,0.300781 -0.10156,1.550781 -1.30078,3.75 -1.16797,2.167969 -5.03516,3.449219 -11.60156,3.851562 2.76953,-3.136718 3.90234,-5.667968 3.40234,-7.601562 -0.5,-1.933594 -0.88281,-2.917969 -1.15234,-2.949219 -0.73047,4.234375 -2.94922,6.933594 -6.64844,8.097657 -3.66797,1.203124 -5.76563,1.734374 -6.30078,1.601562 l 0.10156,0.101562 c -5.60156,-0.101562 -8.53516,0.683594 -8.80078,2.347657 -0.26563,1.699219 -0.21484,2.683593 0.14844,2.949219 -7.5,-2.03125 -12.21485,-2.183594 -14.14844,-0.449219 -1.96484,1.734375 -2.61719,3.867191 -1.94922,6.402341 0.63281,2.5 1.06641,3.88282 1.30078,4.14844 4.79688,-3.26562 8.88281,-4.31641 12.25,-3.14844 3.36328,1.13282 5.13281,1.91407 5.29688,2.34766 -0.0312,0.33594 -0.0664,0.65234 -0.0977,0.94922 -1.40234,-0.26563 -2.76562,-0.31641 -4.10156,-0.14844 -1.83203,0.23438 -3.55078,0.68359 -5.14844,1.35156 -3.06641,1.4336 -6,2.79688 -8.80078,4.09766 -2.96484,1.23437 -5.88281,1.10156 -8.75,-0.39844 -1.36719,-0.80078 -2.36719,-1.94922 -3,-3.44922 -0.60156,-1.46875 -0.78516,-3.03515 -0.55078,-4.70312 -0.4336,1.60156 -0.41406,3.23437 0.0508,4.90234 0.5,1.66406 1.46484,3.03125 2.89844,4.09766 3.0664,2.0664 6.38672,2.58594 9.95312,1.55078 3.23047,-1.09766 6.31641,-2.14844 9.25,-3.14844 2.66406,-0.80078 5.13281,-0.85156 7.39844,-0.15234 -1.33203,4 -2.85156,6.21875 -4.55078,6.65234 -1.69922,0.4336 -2.63281,0.53125 -2.80078,0.30078 0.33593,0.33203 0.63672,0.63282 0.90234,0.89844 l -0.15234,0 c 3.20312,2.73438 6.35156,3.46484 9.45312,2.19922 3.13281,-1.23438 4.81641,-2.05078 5.04688,-2.44922 -2.73047,0.89844 -5.04688,0.78516 -6.94922,-0.35156 1.5,-1.83203 2.76562,-3.66406 3.80078,-5.5 1.03516,-1.79688 1.88281,-2.34766 2.55078,-1.64844 1.43359,1.46484 3.39844,2.25 5.89844,2.35156 2.53515,0.0977 3.93359,0.0977 4.19922,0 -2.03125,-1.43359 -3.19922,-2.90234 -3.5,-4.40234 3.66797,-0.73438 7.15234,-1 10.45312,-0.80078 3.29688,0.23437 5.88281,0.68359 7.75,1.35156 1.09766,0.36719 2.14844,0.81641 3.14844,1.35156 0.96484,0.46485 1.89844,1.01563 2.80078,1.64844 0.63281,0.5 1.26563,1.03516 1.89844,1.60156 -0.63281,0.59766 -1.41406,2.1836 -2.34766,4.75 -0.93359,2.56641 -1.3164,6.41407 -1.15234,11.54688 L 258.75,130.35156 258.55078,123.5 l -3.94922,-1.75 -2.90234,0.94922 2.44922,0.40234 c -0.0312,0.53125 0.83593,1.41407 2.60156,2.64844 -0.16797,0 -0.60156,0.25 -1.30078,0.75 -0.69922,0.53516 -0.84766,1.26563 -0.44922,2.19922 l -5.39844,-4 L 243.75,126 l -1.75,3.39844 3.14844,-1.79688 c 0.10156,0.0664 0.71875,0.29688 1.85156,0.69922 1.10156,0.36719 2.06641,0.39844 2.89844,0.0977 -0.0312,0.63672 0.85156,1.58593 2.65234,2.85156 l -8.40234,2.10156 -3.64844,3.94922 1.30078,3.34766 0.64844,-2.75 c 0.23437,0.33593 1.51562,-0.29688 3.85156,-1.89844 0.13281,0 0.81641,0 2.05078,0 1.23047,0 2.23047,-0.14844 3,-0.44922 l -4.15234,4.14844 2.55078,3 2.69922,0.10156 L 251.5,141.25 c 0.19922,0.36719 0.71484,-0.91797 1.55078,-3.85156 0.0664,-0.19922 0.64844,-0.83203 1.75,-1.89844 1.06641,-1.03516 2.28125,-1.36719 3.64844,-1 1.43359,0.53516 3.23437,1.46484 5.40234,2.80078 2.19922,1.33203 3.79688,3.16406 4.79688,5.5 l -0.0977,-3.65234 2.59766,3.25 c -0.0977,-0.19922 -0.31641,-1.34766 -0.64844,-3.44922 -0.36719,-2.06641 -0.30078,-3.9336 0.19922,-5.59766 0.5,-1.03515 1.28515,-2.15234 2.35156,-3.35156 1.06641,-1.19922 1.86719,-2.64844 2.39844,-4.35156 0.73437,2 1.23437,4.0664 1.5,6.20312 0.80078,4.83203 0.18359,9.31641 -1.84766,13.44922 -6.70312,11.5 -18.90234,16.88281 -36.60156,16.14844 -9.03516,-0.59766 -17.21484,-3.71485 -24.55078,-9.34766 l 1.65234,-2.85156 0.94922,2.5 c 0.86719,-3.19922 2.05078,-5.44922 3.55078,-6.75 1.53125,-1.30078 2.38281,-1.93359 2.54688,-1.89844 0.13672,-0.16797 0.88672,-0.48437 2.25,-0.95312 1.33593,-0.5 2.38672,-0.14844 3.15234,1.05078 0.69922,1.30078 1.48438,2.01562 2.34766,2.15234 0.90234,0.0977 1.40234,0.11328 1.5,0.0469 l 1.05078,1.85156 -0.0508,-4.5 -5.14844,-3.5 c 1.33203,0.10156 2.14844,-0.11719 2.44922,-0.64844 0.33594,-0.5664 0.46875,-0.88672 0.40234,-0.95312 0.83203,1.0664 1.78125,1.73437 2.84766,2 1.03515,0.26953 1.60156,0.36718 1.69922,0.30078 l 1.45312,1.44922 -0.30078,-4.19922 -6.25,-1.94922 -3.15234,1.64844 1.85156,-3.75 c 1.76562,0.23437 3.06641,0.11718 3.89844,-0.34766 0.83593,-0.5 1.23437,-0.78516 1.20312,-0.85156 l 2.5,0.35156 -2.35156,-2.10156 -6.60156,0.10156 -5.34766,4.64844 -0.44922,-1.69922 c 1,-0.36719 1.59766,-0.94922 1.79688,-1.75 0.16797,-0.76563 0.21875,-1.19922 0.15234,-1.30078 l 2.5,-1.75 -4.25,-0.75 -3.35156,4.25 c 0.66797,3.26562 0.65234,5.68359 -0.0508,7.25 -0.69922,1.60156 -1.13282,2.40234 -1.29688,2.40234 -0.86719,-2.90234 -2.80078,-6.43359 -5.80078,-10.60156 -3,-4.19922 -5.51562,-6.16797 -7.55078,-5.89844 -1.19922,0.59766 -2.23438,1.73047 -3.10156,3.39844 -0.86328,1.66797 -1.53125,3.23437 -2,4.69922 -1.26563,-2.59766 -2.29688,-5.31641 -3.09766,-8.14844 -2.80078,-9.93359 -2.68359,-19.8164 0.34766,-29.652342 3.16797,-9.765626 8.76953,-17.882813 16.80078,-24.347657 3.10156,-2.566406 7.05078,-4.949219 11.85156,-7.152343 4.86719,-2.164063 10.39844,-3.53125 16.59766,-4.097657 6.33593,-0.535156 12.83593,0.03125 19.5,1.699219 6.70312,1.734375 12.8164,4.765625 18.35156,9.101562 4.86719,3.898438 8.75,8.546876 11.64844,13.949219 l -0.0469,0.148438 c 0.0664,0.03516 0.13281,0.05078 0.19922,0.05078 0.33203,0.632812 0.64844,1.265625 0.94922,1.898438 2.86719,6.300781 4.38281,12.703124 4.55078,19.203123 0.0664,1.56641 0.0508,3.13282 -0.0508,4.69922 -0.10156,1.5 -0.21484,3.06641 -0.35156,4.69922 -0.19922,3.16797 -0.13282,6.19922 0.20312,9.10156 0.69922,5.79688 2.19922,10.5 4.5,14.09766 -1.03515,-2.86719 -1.66797,-6.1836 -1.90234,-9.94922 1.19922,4.43359 4.16797,8.30078 8.90234,11.60156 -0.13672,0.0977 -0.63672,-0.58594 -1.5,-2.05078 -0.90234,-1.5 -1.41797,-4.36719 -1.55078,-8.60156"
       id="path3399"
       inkscape:connector-curvature="0" />
  </g>
</svg>
