<svg width="16pt" height="16pt" viewBox="0 0 16 16" version="1.1" xmlns="http://www.w3.org/2000/svg" xmlns:xlink="http://www.w3.org/1999/xlink">
  <g id="surface2">
    <path style=" stroke:none;fill-rule:evenodd;fill:rgb(70.196078%,13.72549%,9.019608%);fill-opacity:1;" d="M 208.75 140.25 L 209.898438 135.351562 L 210.199219 139.550781 C 212.398438 142.648438 213.632812 145.316406 213.898438 147.550781 C 214.167969 149.785156 214.148438 151.265625 213.851562 152 C 213.050781 151.398438 212.265625 150.765625 211.5 150.101562 C 209.566406 148.433594 207.765625 146.632812 206.101562 144.699219 L 208.75 140.25 M 229.898438 99.25 C 230.101562 99.382812 231.398438 99.785156 233.800781 100.449219 C 236.234375 101.148438 238.667969 101.316406 241.101562 100.949219 C 240.765625 101.382812 239.167969 102.117188 236.300781 103.148438 C 233.464844 104.148438 231.332031 102.851562 229.898438 99.25 M 304.550781 129.449219 C 304.449219 126.550781 303.800781 124.285156 302.601562 122.648438 C 301.433594 121.015625 300.25 119.867188 299.050781 119.199219 C 299.214844 118.066406 299.417969 116.898438 299.648438 115.699219 C 299.949219 114.265625 300.25 112.699219 300.550781 111 C 300.816406 109.367188 301.015625 107.683594 301.148438 105.949219 C 301.214844 105.25 301.25 104.566406 301.25 103.898438 C 303.117188 106.964844 304.949219 110.050781 306.75 113.148438 C 304.851562 107.351562 302.898438 101.582031 300.898438 95.851562 C 300.667969 93.882812 300.300781 91.898438 299.800781 89.898438 C 300.132812 90.132812 300.449219 90.382812 300.75 90.648438 C 304.082031 93.417969 307.332031 96.367188 310.5 99.5 C 308.464844 95.566406 306.265625 91.683594 303.898438 87.851562 C 302.699219 85.949219 301.332031 84.082031 299.800781 82.25 C 298.601562 80.785156 297.167969 79.382812 295.5 78.050781 C 295.699219 78.148438 295.917969 78.25 296.148438 78.351562 C 300.550781 80.316406 304.949219 82.382812 309.351562 84.550781 C 305.785156 81.25 302.117188 78 298.351562 74.800781 C 295.015625 71.898438 291.316406 69.285156 287.25 66.949219 C 286.351562 66.015625 285.417969 65.101562 284.449219 64.199219 C 284.316406 64.101562 284.183594 63.984375 284.050781 63.851562 C 284.25 63.851562 284.449219 63.851562 284.648438 63.851562 C 288.882812 63.851562 293.066406 64.535156 297.199219 65.898438 C 293.699219 63.234375 289.765625 61.167969 285.398438 59.699219 C 281.800781 58.5 278.082031 57.582031 274.25 56.949219 C 273.449219 56.484375 272.648438 56.050781 271.851562 55.648438 C 272.449219 55.484375 273.082031 55.332031 273.75 55.199219 C 277.75 54.535156 281.898438 53.933594 286.199219 53.398438 C 282.132812 52.566406 277.933594 51.765625 273.601562 51 C 269.167969 50.464844 264.714844 50.582031 260.25 51.351562 C 259.683594 51.214844 259.117188 51.082031 258.550781 50.949219 C 261.851562 48.851562 265.398438 47.25 269.199219 46.148438 C 264.765625 45.984375 260.367188 46.484375 256 47.648438 C 253.535156 48.285156 251.132812 48.882812 248.800781 49.449219 C 246.832031 49.285156 244.898438 49.199219 243 49.199219 C 246.933594 46.367188 251.132812 43.917969 255.601562 41.851562 C 250.5 42.683594 245.5 44 240.601562 45.800781 C 235.800781 47.535156 231.066406 49.433594 226.398438 51.5 C 226.601562 51.234375 226.800781 50.949219 227 50.648438 C 230.035156 46.785156 233.535156 43.234375 237.5 40 C 235.132812 41 232.851562 42.148438 230.648438 43.449219 C 228.417969 44.683594 226.234375 46.082031 224.101562 47.648438 C 223 48.484375 221.964844 49.398438 221 50.398438 C 220.035156 51.398438 219.148438 52.382812 218.351562 53.351562 C 217.683594 54.082031 217.035156 54.765625 216.398438 55.398438 C 213.265625 57 210.484375 58.683594 208.050781 60.449219 C 208.25 59.714844 208.464844 59 208.699219 58.300781 C 209.433594 56.035156 210.464844 53.917969 211.800781 51.949219 C 213.132812 49.984375 214.867188 48.300781 217 46.898438 C 214.566406 47.632812 212.316406 48.832031 210.25 50.5 C 208.214844 52.199219 206.464844 54.148438 205 56.351562 C 202.167969 60.816406 199.648438 65.199219 197.449219 69.5 L 197.699219 69.550781 C 196.300781 71.050781 194.964844 72.601562 193.699219 74.199219 C 193.832031 73.199219 194 72.214844 194.199219 71.25 C 194.601562 69.648438 195.050781 68.015625 195.550781 66.351562 C 196.050781 64.714844 196.601562 63.101562 197.199219 61.5 C 198.332031 58.265625 199.882812 55.199219 201.851562 52.300781 C 199.316406 54.765625 197.132812 57.515625 195.300781 60.550781 C 194.367188 62.050781 193.484375 63.582031 192.648438 65.148438 C 191.816406 66.648438 191.015625 68.234375 190.25 69.898438 C 188.816406 73.300781 187.683594 76.734375 186.851562 80.199219 C 186.082031 83.234375 185.433594 86.316406 184.898438 89.449219 C 184.566406 90.285156 184.265625 91.117188 184 91.949219 C 183.867188 91.050781 183.75 90.132812 183.648438 89.199219 C 182.949219 82.167969 183.316406 75.066406 184.75 67.898438 C 181.949219 74.632812 180.183594 81.734375 179.449219 89.199219 C 178.917969 95.699219 179.332031 102.214844 180.699219 108.75 C 180.234375 108.148438 179.800781 107.550781 179.398438 106.949219 C 177.964844 104.785156 176.851562 102.398438 176.050781 99.800781 C 175.285156 97.199219 174.734375 94.5 174.398438 91.699219 C 174.035156 94.464844 173.898438 97.285156 174 100.148438 C 174.132812 103.050781 174.683594 105.917969 175.648438 108.75 C 176.617188 111.582031 177.898438 114.265625 179.5 116.800781 C 180.234375 117.933594 181 119.050781 181.800781 120.148438 C 182.101562 122.117188 182.484375 124.066406 182.949219 126 C 181.417969 125.699219 179.714844 125.535156 177.851562 125.5 C 175.949219 125.464844 174.449219 125.832031 173.351562 126.601562 C 172.148438 128.265625 172.667969 131.398438 174.898438 136 C 177.132812 140.632812 179.316406 144.035156 181.449219 146.199219 C 181.382812 146.332031 180.484375 146.332031 178.75 146.199219 C 177.015625 146.066406 174.882812 144.933594 172.351562 142.800781 L 167 143.699219 L 165.648438 147.800781 L 168.351562 146.449219 C 168.417969 146.515625 168.832031 146.667969 169.601562 146.898438 C 170.367188 147.132812 171.148438 146.898438 171.949219 146.199219 L 173.25 147.351562 L 166.601562 149.851562 L 163.398438 155.601562 L 164.101562 158.699219 L 164.949219 156.300781 C 165.550781 156.734375 166.734375 155.433594 168.5 152.398438 L 172.601562 152.601562 L 169.699219 154.601562 L 168.398438 160.949219 L 171.949219 163.25 L 171.398438 161.25 C 171.5 161.183594 171.683594 160.632812 171.949219 159.601562 C 172.214844 158.566406 172.066406 157.433594 171.5 156.199219 C 171.566406 156.300781 171.917969 156.332031 172.550781 156.300781 C 173.183594 156.265625 173.765625 155.648438 174.300781 154.449219 L 174.898438 160.648438 L 178.851562 162.851562 L 177.75 161 C 177.851562 160.964844 178.066406 160.535156 178.398438 159.699219 C 178.699219 158.867188 178.449219 157.832031 177.648438 156.601562 C 176.949219 155.367188 177.132812 154.265625 178.199219 153.300781 C 179.265625 152.332031 179.917969 151.832031 180.148438 151.800781 C 180.183594 151.632812 181.132812 151.183594 183 150.449219 C 184.898438 149.75 187.449219 149.785156 190.648438 150.550781 L 188.898438 148.5 L 192.550781 148.449219 C 192.382812 148.582031 191.25 148.066406 189.148438 146.898438 C 187.050781 145.734375 184.984375 143.148438 182.949219 139.148438 L 179.398438 136.898438 L 184.25 138.25 L 187.101562 137.648438 C 190.933594 145.75 196.234375 152.75 203 158.648438 C 205.199219 160.550781 207.515625 162.316406 209.949219 163.949219 C 208.617188 164.050781 207.25 164.035156 205.851562 163.898438 C 200.515625 163.332031 195.183594 162.050781 189.851562 160.050781 C 194.417969 163.285156 199.449219 165.933594 204.949219 168 C 207.75 169 210.734375 169.601562 213.898438 169.800781 C 215.800781 169.867188 217.75 169.734375 219.75 169.398438 C 220.949219 169.964844 222.183594 170.464844 223.449219 170.898438 C 222.648438 171.199219 221.867188 171.464844 221.101562 171.699219 C 218.367188 172.566406 215.566406 173.101562 212.699219 173.300781 C 209.800781 173.5 206.933594 173.082031 204.101562 172.050781 C 206.632812 173.75 209.449219 174.867188 212.550781 175.398438 C 215.617188 175.933594 218.699219 176.082031 221.800781 175.851562 C 226.765625 175.382812 231.566406 174.699219 236.199219 173.800781 C 236.332031 173.800781 236.449219 173.800781 236.550781 173.800781 C 239.117188 173.964844 241.734375 173.984375 244.398438 173.851562 C 243.832031 174.316406 243.265625 174.765625 242.699219 175.199219 C 241.5 176.101562 240.214844 176.851562 238.851562 177.449219 C 237.417969 178.082031 235.949219 178.648438 234.449219 179.148438 C 231.417969 180.082031 228.316406 180.882812 225.148438 181.550781 C 228.351562 181.582031 231.582031 181.464844 234.851562 181.199219 C 236.515625 181.035156 238.167969 180.785156 239.800781 180.449219 C 241.5 180.082031 243.148438 179.550781 244.75 178.851562 C 248.515625 177.082031 251.964844 175 255.101562 172.601562 C 255.367188 172.535156 255.632812 172.484375 255.898438 172.449219 C 259.199219 171.714844 262.433594 170.648438 265.601562 169.25 C 265.5 169.417969 265.398438 169.566406 265.300781 169.699219 C 264.566406 170.832031 263.800781 171.949219 263 173.050781 C 262.199219 174.183594 261.351562 175.234375 260.449219 176.199219 C 258.550781 178.132812 256.382812 179.832031 253.949219 181.300781 C 256.648438 180.5 259.25 179.332031 261.75 177.800781 C 262.984375 177 264.148438 176.148438 265.25 175.25 C 266.351562 174.351562 267.433594 173.417969 268.5 172.449219 C 270.667969 170.515625 272.648438 168.285156 274.449219 165.75 C 275.117188 164.816406 275.714844 163.785156 276.25 162.648438 C 277.785156 161.382812 279.199219 160.050781 280.5 158.648438 C 280.464844 160.050781 280.316406 161.5 280.050781 163 C 278.882812 168.398438 277.101562 173.734375 274.699219 179 C 278.265625 174.566406 281.367188 169.667969 284 164.300781 C 285.332031 161.566406 286.199219 158.550781 286.601562 155.25 C 286.800781 153.550781 286.699219 151.785156 286.300781 149.949219 C 286.234375 149.714844 286.167969 149.484375 286.101562 149.25 C 286.5 148.183594 286.851562 147.082031 287.148438 145.949219 C 287.382812 146.683594 287.617188 147.417969 287.851562 148.148438 C 289.25 153.382812 289.816406 158.816406 289.550781 164.449219 C 291.214844 159.082031 292.035156 153.464844 292 147.601562 C 291.964844 144.667969 291.515625 141.667969 290.648438 138.601562 C 290.148438 136.964844 289.398438 135.332031 288.398438 133.699219 C 288.332031 132.601562 288.25 131.535156 288.148438 130.5 C 288.050781 129.699219 287.917969 128.882812 287.75 128.050781 C 291.082031 131.351562 293.449219 135.367188 294.851562 140.101562 C 294.816406 134.933594 293.484375 129.984375 290.851562 125.25 C 289.582031 122.917969 288.050781 120.714844 286.25 118.648438 C 285.285156 117.515625 284.199219 116.449219 283 115.449219 C 282.398438 114.417969 281.75 113.417969 281.050781 112.449219 C 280.882812 112.25 280.714844 112.050781 280.550781 111.851562 C 282.25 112.285156 283.917969 112.816406 285.550781 113.449219 C 288.117188 114.449219 290.464844 115.851562 292.601562 117.648438 C 290.964844 115.351562 288.964844 113.351562 286.601562 111.648438 C 284.535156 110.148438 282.367188 108.816406 280.101562 107.648438 C 280.867188 105.417969 281.617188 103.601562 282.351562 102.199219 C 283.515625 100.898438 285.082031 99.851562 287.050781 99.050781 C 288.984375 98.25 290.066406 97.832031 290.300781 97.800781 L 286.199219 97.300781 L 289.300781 95.449219 C 286.765625 95.851562 284.367188 95.464844 282.101562 94.300781 C 279.832031 93.167969 278.082031 92.132812 276.851562 91.199219 C 275.816406 90.234375 275.464844 89.015625 275.800781 87.550781 C 276.101562 86.050781 276.316406 85.214844 276.449219 85.050781 C 278.515625 82.816406 279.351562 81.699219 278.949219 81.699219 L 280.75 81.75 L 279.25 79.449219 L 275.300781 78.898438 L 274 84.601562 C 273.867188 83.800781 273.484375 82.867188 272.851562 81.800781 C 272.183594 80.765625 271.800781 80.199219 271.699219 80.101562 C 271.867188 77.265625 271.734375 75.832031 271.300781 75.800781 L 273.300781 73.800781 L 269.75 74.449219 L 268.351562 79.648438 L 270.949219 87.898438 C 268.949219 87.066406 267.699219 86.816406 267.199219 87.148438 C 267 86.285156 266.449219 85.484375 265.550781 84.75 C 264.617188 83.984375 264.082031 83.582031 263.949219 83.550781 L 263.851562 79.898438 L 261.898438 83.199219 L 263.851562 88.851562 L 270.148438 91.351562 C 269.117188 91.484375 268.566406 91.984375 268.5 92.851562 C 268.433594 93.75 268.433594 94.25 268.5 94.351562 C 266.566406 93.515625 265.367188 93.25 264.898438 93.550781 L 263.300781 91.699219 L 264 94.648438 L 267.550781 97.101562 L 273.5 93.648438 L 278.898438 98.449219 C 275.699219 100.285156 273.234375 102.035156 271.5 103.699219 C 271.300781 103.601562 271.082031 103.515625 270.851562 103.449219 C 270.449219 103.183594 270.035156 102.949219 269.601562 102.75 C 268.101562 101.984375 266.601562 101.351562 265.101562 100.851562 C 262.167969 99.785156 258.5 99.214844 254.101562 99.148438 C 257.734375 96.25 259.617188 93.464844 259.75 90.800781 C 259.882812 88.132812 259.816406 86.699219 259.550781 86.5 C 259.882812 86.800781 259.449219 88.050781 258.25 90.25 C 257.082031 92.417969 253.214844 93.699219 246.648438 94.101562 C 249.417969 90.964844 250.550781 88.433594 250.050781 86.5 C 249.550781 84.566406 249.167969 83.582031 248.898438 83.550781 C 248.167969 87.785156 245.949219 90.484375 242.25 91.648438 C 238.582031 92.851562 236.484375 93.382812 235.949219 93.25 L 236.050781 93.351562 C 230.449219 93.25 227.515625 94.035156 227.25 95.699219 C 226.984375 97.398438 227.035156 98.382812 227.398438 98.648438 C 219.898438 96.617188 215.183594 96.464844 213.25 98.199219 C 211.285156 99.933594 210.632812 102.066406 211.300781 104.601562 C 211.933594 107.101562 212.367188 108.484375 212.601562 108.75 C 217.398438 105.484375 221.484375 104.433594 224.851562 105.601562 C 228.214844 106.734375 229.984375 107.515625 230.148438 107.949219 C 230.117188 108.285156 230.082031 108.601562 230.050781 108.898438 C 228.648438 108.632812 227.285156 108.582031 225.949219 108.75 C 224.117188 108.984375 222.398438 109.433594 220.800781 110.101562 C 217.734375 111.535156 214.800781 112.898438 212 114.199219 C 209.035156 115.433594 206.117188 115.300781 203.25 113.800781 C 201.882812 113 200.882812 111.851562 200.25 110.351562 C 199.648438 108.882812 199.464844 107.316406 199.699219 105.648438 C 199.265625 107.25 199.285156 108.882812 199.75 110.550781 C 200.25 112.214844 201.214844 113.582031 202.648438 114.648438 C 205.714844 116.714844 209.035156 117.234375 212.601562 116.199219 C 215.832031 115.101562 218.917969 114.050781 221.851562 113.050781 C 224.515625 112.25 226.984375 112.199219 229.25 112.898438 C 227.917969 116.898438 226.398438 119.117188 224.699219 119.550781 C 223 119.984375 222.066406 120.082031 221.898438 119.851562 C 222.234375 120.183594 222.535156 120.484375 222.800781 120.75 L 222.648438 120.75 C 225.851562 123.484375 229 124.214844 232.101562 122.949219 C 235.234375 121.714844 236.917969 120.898438 237.148438 120.5 C 234.417969 121.398438 232.101562 121.285156 230.199219 120.148438 C 231.699219 118.316406 232.964844 116.484375 234 114.648438 C 235.035156 112.851562 235.882812 112.300781 236.550781 113 C 237.984375 114.464844 239.949219 115.25 242.449219 115.351562 C 244.984375 115.449219 246.382812 115.449219 246.648438 115.351562 C 244.617188 113.917969 243.449219 112.449219 243.148438 110.949219 C 246.816406 110.214844 250.300781 109.949219 253.601562 110.148438 C 256.898438 110.382812 259.484375 110.832031 261.351562 111.5 C 262.449219 111.867188 263.5 112.316406 264.5 112.851562 C 265.464844 113.316406 266.398438 113.867188 267.300781 114.5 C 267.933594 115 268.566406 115.535156 269.199219 116.101562 C 268.566406 116.699219 267.785156 118.285156 266.851562 120.851562 C 265.917969 123.417969 265.535156 127.265625 265.699219 132.398438 L 258.75 130.351562 L 258.550781 123.5 L 254.601562 121.75 L 251.699219 122.699219 L 254.148438 123.101562 C 254.117188 123.632812 254.984375 124.515625 256.75 125.75 C 256.582031 125.75 256.148438 126 255.449219 126.5 C 254.75 127.035156 254.601562 127.765625 255 128.699219 L 249.601562 124.699219 L 243.75 126 L 242 129.398438 L 245.148438 127.601562 C 245.25 127.667969 245.867188 127.898438 247 128.300781 C 248.101562 128.667969 249.066406 128.699219 249.898438 128.398438 C 249.867188 129.035156 250.75 129.984375 252.550781 131.25 L 244.148438 133.351562 L 240.5 137.300781 L 241.800781 140.648438 L 242.449219 137.898438 C 242.683594 138.234375 243.964844 137.601562 246.300781 136 C 246.433594 136 247.117188 136 248.351562 136 C 249.582031 136 250.582031 135.851562 251.351562 135.550781 L 247.199219 139.699219 L 249.75 142.699219 L 252.449219 142.800781 L 251.5 141.25 C 251.699219 141.617188 252.214844 140.332031 253.050781 137.398438 C 253.117188 137.199219 253.699219 136.566406 254.800781 135.5 C 255.867188 134.464844 257.082031 134.132812 258.449219 134.5 C 259.882812 135.035156 261.683594 135.964844 263.851562 137.300781 C 266.050781 138.632812 267.648438 140.464844 268.648438 142.800781 L 268.550781 139.148438 L 271.148438 142.398438 C 271.050781 142.199219 270.832031 141.050781 270.5 138.949219 C 270.132812 136.882812 270.199219 135.015625 270.699219 133.351562 C 271.199219 132.316406 271.984375 131.199219 273.050781 130 C 274.117188 128.800781 274.917969 127.351562 275.449219 125.648438 C 276.183594 127.648438 276.683594 129.714844 276.949219 131.851562 C 277.75 136.683594 277.132812 141.167969 275.101562 145.300781 C 268.398438 156.800781 256.199219 162.183594 238.5 161.449219 C 229.464844 160.851562 221.285156 157.734375 213.949219 152.101562 L 215.601562 149.25 L 216.550781 151.75 C 217.417969 148.550781 218.601562 146.300781 220.101562 145 C 221.632812 143.699219 222.484375 143.066406 222.648438 143.101562 C 222.785156 142.933594 223.535156 142.617188 224.898438 142.148438 C 226.234375 141.648438 227.285156 142 228.050781 143.199219 C 228.75 144.5 229.535156 145.214844 230.398438 145.351562 C 231.300781 145.449219 231.800781 145.464844 231.898438 145.398438 L 232.949219 147.25 L 232.898438 142.75 L 227.75 139.25 C 229.082031 139.351562 229.898438 139.132812 230.199219 138.601562 C 230.535156 138.035156 230.667969 137.714844 230.601562 137.648438 C 231.433594 138.714844 232.382812 139.382812 233.449219 139.648438 C 234.484375 139.917969 235.050781 140.015625 235.148438 139.949219 L 236.601562 141.398438 L 236.300781 137.199219 L 230.050781 135.25 L 226.898438 136.898438 L 228.75 133.148438 C 230.515625 133.382812 231.816406 133.265625 232.648438 132.800781 C 233.484375 132.300781 233.882812 132.015625 233.851562 131.949219 L 236.351562 132.300781 L 234 130.199219 L 227.398438 130.300781 L 222.050781 134.949219 L 221.601562 133.25 C 222.601562 132.882812 223.199219 132.300781 223.398438 131.5 C 223.566406 130.734375 223.617188 130.300781 223.550781 130.199219 L 226.050781 128.449219 L 221.800781 127.699219 L 218.449219 131.949219 C 219.117188 135.214844 219.101562 137.632812 218.398438 139.199219 C 217.699219 140.800781 217.265625 141.601562 217.101562 141.601562 C 216.234375 138.699219 214.300781 135.167969 211.300781 131 C 208.300781 126.800781 205.785156 124.832031 203.75 125.101562 C 202.550781 125.699219 201.515625 126.832031 200.648438 128.5 C 199.785156 130.167969 199.117188 131.734375 198.648438 133.199219 C 197.382812 130.601562 196.351562 127.882812 195.550781 125.050781 C 192.75 115.117188 192.867188 105.234375 195.898438 95.398438 C 199.066406 85.632812 204.667969 77.515625 212.699219 71.050781 C 215.800781 68.484375 219.75 66.101562 224.550781 63.898438 C 229.417969 61.734375 234.949219 60.367188 241.148438 59.800781 C 247.484375 59.265625 253.984375 59.832031 260.648438 61.5 C 267.351562 63.234375 273.464844 66.265625 279 70.601562 C 283.867188 74.5 287.75 79.148438 290.648438 84.550781 L 290.601562 84.699219 C 290.667969 84.734375 290.734375 84.75 290.800781 84.75 C 291.132812 85.382812 291.449219 86.015625 291.75 86.648438 C 294.617188 92.949219 296.132812 99.351562 296.300781 105.851562 C 296.367188 107.417969 296.351562 108.984375 296.25 110.550781 C 296.148438 112.050781 296.035156 113.617188 295.898438 115.25 C 295.699219 118.417969 295.765625 121.449219 296.101562 124.351562 C 296.800781 130.148438 298.300781 134.851562 300.601562 138.449219 C 299.566406 135.582031 298.933594 132.265625 298.699219 128.5 C 299.898438 132.933594 302.867188 136.800781 307.601562 140.101562 C 307.464844 140.199219 306.964844 139.515625 306.101562 138.050781 C 305.199219 136.550781 304.683594 133.683594 304.550781 129.449219 "/>
  </g>
</svg>
