<svg width="160" height="150" xmlns="http://www.w3.org/2000/svg">
 <g>
  <title>Layer 1</title>
  <g id="surface2">
   <path id="svg_1" fill-rule="evenodd" fill="rgb(70.196078%,13.72549%,9.019608%)" d="m52.75,104.25l1.14844,-4.89844l0.30078,4.19922c2.19922,3.09766 3.43359,5.76563 3.69922,8c0.26953,2.23438 0.25,3.71484 -0.04688,4.44922c-0.80078,-0.60156 -1.58594,-1.23438 -2.35156,-1.89844c-1.93359,-1.66797 -3.73438,-3.46875 -5.39844,-5.40234l2.64844,-4.44922m21.14844,-41c0.20313,0.13281 1.5,0.53516 3.90234,1.19922c2.43359,0.69922 4.86719,0.86719 7.30078,0.5c-0.33595,0.43359 -1.93359,1.16797 -4.80078,2.19922c-2.83594,1 -4.96875,-0.29688 -6.40234,-3.89844m74.65234,30.19922c-0.10156,-2.89844 -0.75,-5.16406 -1.94922,-6.80078c-1.16797,-1.6328 -2.35156,-2.78125 -3.55078,-3.44922c0.16406,-1.13281 0.36719,-2.30078 0.59766,-3.5c0.30078,-1.43359 0.60156,-3 0.90234,-4.69922c0.26563,-1.63281 0.46484,-3.31641 0.59766,-5.05078c0.06641,-0.69922 0.10156,-1.38281 0.10156,-2.05078c1.86719,3.06641 3.69922,6.15234 5.5,9.25c-1.89844,-5.79688 -3.85156,-11.56641 -5.85156,-17.29688c-0.23047,-1.96875 -0.59766,-3.95313 -1.09766,-5.95313c0.33203,0.23438 0.64844,0.48438 0.94922,0.75c3.33203,2.76953 6.58203,5.71875 9.75,8.85156c-2.03516,-3.93359 -4.23438,-7.81641 -6.60156,-11.64844c-1.19922,-1.90234 -2.56641,-3.76953 -4.09766,-5.60156c-1.19922,-1.46484 -2.63281,-2.86719 -4.30078,-4.19922c0.19922,0.09766 0.41797,0.19922 0.64844,0.30078c4.40234,1.96484 8.80078,4.03125 13.20313,6.19922c-3.56641,-3.30078 -7.23438,-6.55078 -11,-9.75c-3.33594,-2.90234 -7.03516,-5.51563 -11.10155,-7.85156c-0.89845,-0.93359 -1.83205,-1.84766 -2.8008,-2.75c-0.13278,-0.09766 -0.26561,-0.21484 -0.39842,-0.34766c0.1992,0 0.39842,0 0.59766,0c4.23439,0 8.41798,0.6836 12.55078,2.04688c-3.5,-2.66406 -7.43358,-4.73047 -11.80078,-6.19922c-3.59766,-1.19922 -7.31641,-2.11719 -11.14845,-2.75c-0.80078,-0.46484 -1.60155,-0.89844 -2.39844,-1.30078c0.59766,-0.16406 1.23047,-0.31641 1.89844,-0.44922c4,-0.66406 8.14845,-1.26563 12.44923,-1.80078c-4.06641,-0.83203 -8.26563,-1.63281 -12.59766,-2.39844c-4.43359,-0.53516 -8.88672,-0.41797 -13.35155,0.35156c-0.56641,-0.13672 -1.1328,-0.26953 -1.69923,-0.40234c3.30078,-2.09766 6.84766,-3.69922 10.64845,-4.80078c-4.43359,-0.16406 -8.83202,0.33594 -13.19922,1.5c-2.46484,0.63672 -4.8672,1.23437 -7.19923,1.80078c-1.96875,-0.16406 -3.90234,-0.25 -5.80077,-0.25c3.93359,-2.83203 8.1328,-5.28125 12.60155,-7.34766c-5.10155,0.83203 -10.10155,2.14844 -15,3.94922c-4.80078,1.73438 -9.53516,3.63281 -14.20313,5.69922c0.20313,-0.26562 0.40234,-0.55078 0.60155,-0.85156c3.03516,-3.86328 6.53516,-7.41406 10.5,-10.64844c-2.3672,1 -4.64845,2.14844 -6.85155,3.44922c-2.23048,1.23437 -4.41405,2.63281 -6.54688,4.19922c-1.10156,0.83594 -2.13672,1.75 -3.10156,2.75c-0.96484,1 -1.85155,1.98437 -2.64843,2.95312c-0.66797,0.73047 -1.31641,1.41407 -1.95313,2.04688c-3.13281,1.60156 -5.91406,3.28515 -8.34766,5.05078c0.19922,-0.73438 0.41406,-1.44922 0.64844,-2.14844c0.73438,-2.26562 1.76563,-4.38281 3.10156,-6.35156c1.33203,-1.96484 3.06641,-3.64844 5.19922,-5.05078c-2.43359,0.73437 -4.68359,1.93359 -6.75,3.60156c-2.03516,1.69922 -3.78516,3.64844 -5.25,5.85156c-2.83203,4.46485 -5.35156,8.84766 -7.55078,13.14844l0.25,0.05078c-1.39844,1.5 -2.73438,3.05078 -4,4.64844c0.13281,-1 0.30078,-1.98438 0.5,-2.94922c0.40234,-1.60156 0.85156,-3.23437 1.35156,-4.89844c0.5,-1.63672 1.05078,-3.25 1.64844,-4.85156c1.13281,-3.23437 2.68359,-6.30078 4.65234,-9.19922c-2.53516,2.46485 -4.71875,5.21485 -6.55078,8.25c-0.93359,1.5 -1.81641,3.03125 -2.65234,4.59766c-0.83203,1.5 -1.63281,3.08595 -2.39843,4.75c-1.43359,3.40234 -2.56642,6.83595 -3.39844,10.30078c-0.76953,3.03516 -1.41797,6.11719 -1.95313,9.25c-0.33203,0.83594 -0.63281,1.66797 -0.89844,2.5c-0.13281,-0.89844 -0.25,-1.81641 -0.35156,-2.75c-0.69922,-7.03125 -0.33203,-14.13281 1.10156,-21.30078c-2.80078,6.73438 -4.56641,13.83595 -5.30078,21.30078c-0.53125,6.5 -0.11719,13.01563 1.25,19.55078c-0.46484,-0.60156 -0.89844,-1.19922 -1.30078,-1.80078c-1.43359,-2.16406 -2.54688,-4.55078 -3.34766,-7.14844c-0.76563,-2.60156 -1.31641,-5.30079 -1.65234,-8.10156c-0.36328,2.76563 -0.5,5.58594 -0.39844,8.44922c0.13281,2.90234 0.68359,5.76953 1.64844,8.60156c0.96875,2.83203 2.25,5.51563 3.85159,8.05078c0.73438,1.1328 1.5,2.25 2.30078,3.34766c0.30078,1.96875 0.68359,3.91797 1.14844,5.85156c-1.53125,-0.30078 -3.23438,-0.46484 -5.09766,-0.5c-1.90234,-0.03516 -3.40234,0.33203 -4.5,1.10155c-1.20313,1.66406 -0.6836,4.79688 1.54688,9.39845c2.23438,4.6328 4.41797,8.03516 6.55076,10.19922c-0.06641,0.13281 -0.96484,0.13281 -2.69922,0c-1.73438,-0.13281 -3.86719,-1.26563 -6.39844,-3.39844l-5.35156,0.89844l-1.35156,4.10156l2.70313,-1.35156c0.06641,0.06641 0.48047,0.21875 1.25,0.44922c0.76563,0.23438 1.54688,0 2.34766,-0.69922l1.30078,1.15234l-6.64844,2.5l-3.20313,5.75l0.70313,3.09766l0.84767,-2.39844c0.60157,0.43359 1.78517,-0.8672 3.55079,-3.90234l4.10156,0.20313l-2.90234,2l-1.30078,6.34766l3.55078,2.30078l-0.55078,-2c0.10156,-0.06641 0.28516,-0.61719 0.55078,-1.64844c0.26563,-1.03516 0.11719,-2.16797 -0.44922,-3.40234c0.06641,0.10156 0.41797,0.13281 1.05078,0.10156c0.63281,-0.03516 1.21484,-0.65234 1.75,-1.85156l0.59766,6.19922l3.95313,2.20313l-1.10156,-1.85154c0.10156,-0.03516 0.31641,-0.46484 0.64844,-1.30078c0.30078,-0.83202 0.05078,-1.8672 -0.75,-3.09766c-0.69922,-1.23438 -0.51563,-2.33595 0.55078,-3.30078c1.06641,-0.96875 1.71875,-1.46875 1.94922,-1.5c0.03516,-0.16797 0.98438,-0.6172 2.85156,-1.35155c1.89844,-0.69922 4.44922,-0.66405 7.64844,0.10155l-1.75,-2.05077l3.65234,-0.05078c-0.16797,0.1328 -1.30078,-0.3828 -3.40234,-1.55077c-2.09766,-1.16405 -4.16406,-3.75 -6.19922,-7.75l-3.55078,-2.25l4.85156,1.35155l2.85156,-0.60155c3.83203,8.10155 9.13281,15.10155 15.89844,21c2.19922,1.90234 4.51563,3.66797 6.94922,5.30078c-1.33203,0.10155 -2.69922,0.08595 -4.09766,-0.05078c-5.33594,-0.56641 -10.66797,-1.84766 -16,-3.84766c4.56641,3.23438 9.59766,5.8828 15.09766,7.94923c2.80078,1 5.78516,1.60155 8.94922,1.80078c1.90234,0.06641 3.85156,-0.06642 5.85157,-0.40234c1.19922,0.56641 2.43359,1.06641 3.6992,1.5c-0.80077,0.30078 -1.58202,0.56641 -2.34766,0.80078c-2.73438,0.86719 -5.53516,1.40233 -8.40234,1.60156c-2.89844,0.19922 -5.76563,-0.21875 -8.59766,-1.25c2.53125,1.69922 5.34766,2.81641 8.44922,3.34766c3.06641,0.53516 6.14844,0.68359 9.25,0.45313c4.96484,-0.46875 9.76563,-1.15233 14.39845,-2.05077c0.1328,0 0.25,0 0.35155,0c2.56641,0.16405 5.18359,0.18358 7.84766,0.05077c-0.56641,0.46484 -1.1328,0.91406 -1.69923,1.34767c-1.19922,0.90233 -2.48438,1.65233 -3.84766,2.25c-1.43359,0.63281 -2.90234,1.19922 -4.40234,1.69922c-3.03125,0.93359 -6.1328,1.73439 -9.30077,2.40234c3.20313,0.03125 6.43359,-0.08595 9.70313,-0.35156c1.66405,-0.16406 3.31641,-0.41406 4.94922,-0.75c1.69923,-0.36719 3.34766,-0.89844 4.94923,-1.59767c3.76563,-1.76952 7.21484,-3.85155 10.35155,-6.25c0.26563,-0.06641 0.53125,-0.11719 0.79688,-0.15233c3.30077,-0.73439 6.53516,-1.80078 9.70313,-3.19922c-0.10155,0.16797 -0.20313,0.31641 -0.30078,0.44922c-0.73438,1.13281 -1.5,2.25 -2.30077,3.35156c-0.80077,1.1328 -1.64845,2.18358 -2.55077,3.14844c-1.89845,1.93358 -4.06641,3.63281 -6.5,5.10156c2.69922,-0.80078 5.30077,-1.96875 7.80077,-3.5c1.23438,-0.80078 2.39845,-1.65234 3.5,-2.55078c1.10155,-0.89845 2.18359,-1.83203 3.25,-2.80078c2.16797,-1.93358 4.14845,-4.16406 5.94923,-6.69922c0.66797,-0.93359 1.26563,-1.96484 1.80077,-3.10155c1.53516,-1.26563 2.94923,-2.59766 4.25,-3.99998c-0.03516,1.40234 -0.18359,2.85156 -0.44923,4.35155c-1.16797,5.39844 -2.94923,10.73439 -5.35155,16c3.56641,-4.43358 6.66797,-9.33203 9.3008,-14.69922c1.33202,-2.73438 2.19922,-5.75 2.60155,-9.05077c0.19922,-1.69923 0.09767,-3.46484 -0.30078,-5.30078c-0.06641,-0.23438 -0.1328,-0.46484 -0.19922,-0.69922c0.39845,-1.06641 0.75,-2.16798 1.04688,-3.30078c0.23439,0.73438 0.46875,1.46875 0.70314,2.19922c1.39845,5.23438 1.96484,10.66798 1.69923,16.30077c1.66405,-5.36719 2.48438,-10.98438 2.44922,-16.84766c-0.03517,-2.93359 -0.48439,-5.93359 -1.35156,-9c-0.5,-1.63672 -1.25,-3.26952 -2.25,-4.90234c-0.06641,-1.09766 -0.14844,-2.16406 -0.25,-3.19923c-0.09766,-0.80077 -0.23047,-1.6172 -0.39844,-2.44923c3.33203,3.30078 5.69922,7.31641 7.10155,12.05078c-0.03516,-5.16797 -1.36719,-10.11719 -4,-14.85155c-1.26952,-2.33202 -2.80077,-4.53516 -4.60156,-6.60155c-0.96483,-1.1328 -2.05078,-2.19922 -3.24998,-3.19922c-0.60155,-1.03125 -1.25001,-2.03125 -1.94923,-3c-0.16798,-0.19923 -0.33595,-0.39845 -0.5,-0.59766c1.69922,0.43359 3.3672,0.96484 5,1.59766c2.56642,1 4.91406,2.40234 7.05078,4.19922c-1.63672,-2.29688 -3.63672,-4.29688 -6,-6c-2.06642,-1.5 -4.23438,-2.83203 -6.49999,-4c0.76563,-2.23047 1.51563,-4.04688 2.25,-5.44922c1.16405,-1.30078 2.73046,-2.34766 4.69923,-3.14845c1.93358,-0.80077 3.01564,-1.21875 3.25,-1.25l-4.10158,-0.5l3.10158,-1.85156c-2.53516,0.40234 -4.93358,0.01563 -7.19923,-1.14844c-2.26953,-1.13281 -4.01953,-2.16797 -5.25,-3.10156c-1.03516,-0.96484 -1.38672,-2.18359 -1.05078,-3.64844c0.30078,-1.5 0.51563,-2.33594 0.64844,-2.5c2.06641,-2.23438 2.90234,-3.35156 2.5,-3.35156l1.80078,0.05078l-1.5,-2.30078l-3.94922,-0.55078l-1.30078,5.70313c-0.1328,-0.80078 -0.51563,-1.73438 -1.14844,-2.80078c-0.66797,-1.03515 -1.05079,-1.60156 -1.15234,-1.69922c0.16798,-2.83593 0.03516,-4.26953 -0.39845,-4.30078l2,-2l-3.55078,0.64844l-1.39845,5.19922l2.59766,8.25c-2,-0.83203 -3.25,-1.08203 -3.75,-0.75c-0.19923,-0.86328 -0.75,-1.66405 -1.64845,-2.39844c-0.93359,-0.76562 -1.46875,-1.16797 -1.60155,-1.19922l-0.09766,-3.65234l-1.95313,3.30078l1.95313,5.65234l6.29689,2.5c-1.03125,0.13282 -1.58202,0.63282 -1.64845,1.5c-0.06641,0.89844 -0.06641,1.39844 0,1.5c-1.93359,-0.83593 -3.1328,-1.10156 -3.60155,-0.80078l-1.59766,-1.85156l0.69923,2.94922l3.55077,2.45313l5.94923,-3.45313l5.39844,4.80078c-3.19922,1.83594 -5.66405,3.58594 -7.39844,5.25c-0.19923,-0.09766 -0.41798,-0.18359 -0.64845,-0.25c-0.40234,-0.26563 -0.81641,-0.5 -1.25,-0.69923c-1.5,-0.76563 -3,-1.39845 -4.5,-1.89845c-2.93359,-1.06641 -6.60155,-1.63673 -11,-1.70313c3.63282,-2.89845 5.51563,-5.68359 5.64845,-8.34766c0.1328,-2.66797 0.06641,-4.10156 -0.19923,-4.30078c0.33202,0.30078 -0.10155,1.55078 -1.30077,3.75c-1.16798,2.16797 -5.03516,3.44922 -11.60155,3.85156c2.76952,-3.13672 3.90234,-5.66797 3.40234,-7.60156c-0.5,-1.93359 -0.8828,-2.91797 -1.15234,-2.94922c-0.73048,4.23438 -2.94923,6.9336 -6.64845,8.09766c-3.66798,1.20313 -5.76563,1.73438 -6.30078,1.60156l0.10155,0.10156c-5.60155,-0.10156 -8.53516,0.68359 -8.80077,2.34766c-0.26564,1.69922 -0.21484,2.68359 0.14845,2.94922c-7.5,-2.03125 -12.21484,-2.18359 -14.14845,-0.44923c-1.96484,1.73438 -2.61719,3.8672 -1.94922,6.40234c0.63281,2.5 1.06641,3.88282 1.30078,4.14845c4.79688,-3.26563 8.88279,-4.31641 12.25,-3.14845c3.36327,1.13282 5.1328,1.91407 5.29688,2.34766c-0.03125,0.33595 -0.06641,0.65234 -0.09766,0.94923c-1.40234,-0.26563 -2.76563,-0.31641 -4.10155,-0.14845c-1.83203,0.23438 -3.55078,0.68359 -5.14845,1.35155c-3.06641,1.43359 -6,2.79688 -8.80079,4.09766c-2.96484,1.23438 -5.88281,1.10155 -8.75,-0.39845c-1.36719,-0.80077 -2.36719,-1.94922 -3,-3.44922c-0.60156,-1.46875 -0.78516,-3.03516 -0.55078,-4.70313c-0.43359,1.60155 -0.41406,3.23438 0.05078,4.90234c0.5,1.66406 1.46484,3.03125 2.89844,4.09766c3.06641,2.06641 6.38672,2.58595 9.95312,1.55077c3.23047,-1.09766 6.31641,-2.14844 9.25,-3.14844c2.66405,-0.80078 5.1328,-0.85156 7.39845,-0.15234c-1.33202,4 -2.85155,6.21875 -4.55077,6.65234c-1.69923,0.4336 -2.63281,0.53125 -2.80078,0.30078c0.33595,0.33203 0.63672,0.63282 0.90234,0.89844l-0.15234,0c3.20313,2.73438 6.35155,3.46484 9.45313,2.19922c3.1328,-1.23438 4.81641,-2.05077 5.04688,-2.44922c-2.73047,0.89845 -5.04688,0.78516 -6.94922,-0.35155c1.5,-1.83203 2.76563,-3.66405 3.80078,-5.5c1.03516,-1.79688 1.8828,-2.34766 2.55077,-1.64845c1.43359,1.46484 3.39845,2.25 5.89845,2.35156c2.53516,0.09766 3.93359,0.09766 4.19922,0c-2.03125,-1.43359 -3.19922,-2.90234 -3.5,-4.40234c3.66797,-0.73438 7.15234,-1 10.45313,-0.80077c3.29688,0.23438 5.8828,0.68359 7.75,1.35155c1.09766,0.3672 2.14844,0.81641 3.14844,1.35156c0.96484,0.46484 1.89845,1.01563 2.80078,1.64844c0.6328,0.5 1.26563,1.03516 1.89844,1.60156c-0.6328,0.59766 -1.41405,2.18359 -2.34766,4.75c-0.93359,2.56641 -1.31641,6.41407 -1.15234,11.54688l-6.94923,-2.04688l-0.19923,-6.85156l-3.94923,-1.75l-2.90234,0.94922l2.44923,0.40234c-0.03125,0.53125 0.83595,1.41407 2.60155,2.64844c-0.16797,0 -0.60155,0.25 -1.30077,0.75c-0.69923,0.53516 -0.84766,1.26563 -0.44923,2.19922l-5.39845,-4l-5.85155,1.30078l-1.75,3.39845l3.14845,-1.79688c0.10155,0.06641 0.71875,0.29688 1.85155,0.69922c1.10155,0.3672 2.06641,0.39845 2.89845,0.09766c-0.03125,0.63672 0.85155,1.58594 2.65234,2.85155l-8.40234,2.10156l-3.64845,3.94922l1.30078,3.34766l0.64845,-2.75c0.23438,0.33595 1.51563,-0.29688 3.85155,-1.89845c0.1328,0 0.81641,0 2.05077,0c1.23048,0 2.23048,-0.14845 3,-0.44922l-4.15234,4.14844l2.55078,3l2.69923,0.10156l-0.94923,-1.55078c0.19923,0.3672 0.71484,-0.91797 1.55078,-3.85155c0.06641,-0.19923 0.64845,-0.83203 1.75,-1.89845c1.06641,-1.03516 2.28125,-1.3672 3.64845,-1c1.43359,0.53516 3.23438,1.46484 5.40234,2.80078c2.19922,1.33202 3.79688,3.16405 4.79687,5.5l-0.09766,-3.65234l2.59766,3.25c-0.09766,-0.19923 -0.31641,-1.34766 -0.64846,-3.44923c-0.36719,-2.06641 -0.30077,-3.93359 0.19923,-5.59766c0.5,-1.03516 1.28516,-2.15234 2.35157,-3.35155c1.06641,-1.19922 1.86719,-2.64845 2.39843,-4.35155c0.73438,2 1.23438,4.06641 1.5,6.20313c0.80077,4.83203 0.18359,9.31641 -1.84766,13.44922c-6.70312,11.5 -18.90234,16.88281 -36.60155,16.14845c-9.03517,-0.59766 -17.21484,-3.71484 -24.55077,-9.34766l1.65234,-2.85155l0.94922,2.5c0.86719,-3.19923 2.05078,-5.44923 3.55079,-6.75c1.53125,-1.30078 2.3828,-1.93359 2.54688,-1.89845c0.13672,-0.16798 0.88672,-0.48438 2.25,-0.95313c1.33595,-0.5 2.38672,-0.14845 3.15234,1.05077c0.69923,1.30078 1.48438,2.01563 2.34766,2.15234c0.90234,0.09766 1.40234,0.11328 1.5,0.04688l1.05077,1.85155l-0.05077,-4.5l-5.14845,-3.5c1.33202,0.10155 2.14845,-0.1172 2.44923,-0.64845c0.33595,-0.56641 0.46875,-0.88672 0.40234,-0.95313c0.83203,1.06641 1.78125,1.73438 2.84766,2c1.03516,0.26953 1.60155,0.3672 1.69923,0.30078l1.45313,1.44922l-0.30077,-4.19922l-6.25001,-1.94923l-3.15234,1.64845l1.85155,-3.75c1.76563,0.23438 3.06641,0.1172 3.89845,-0.34766c0.83595,-0.5 1.23438,-0.78516 1.20313,-0.85155l2.5,0.35155l-2.35155,-2.10155l-6.60155,0.10155l-5.34766,4.64845l-0.44922,-1.69923c1,-0.36719 1.59766,-0.94922 1.79688,-1.75c0.16797,-0.76563 0.21875,-1.19922 0.15234,-1.30077l2.5,-1.75l-4.25,-0.75l-3.35156,4.25c0.66797,3.26563 0.65234,5.68359 -0.05078,7.25c-0.69922,1.60155 -1.13281,2.40234 -1.29688,2.40234c-0.86719,-2.90234 -2.80078,-6.43359 -5.80078,-10.60155c-3,-4.19922 -5.51563,-6.16797 -7.55078,-5.89845c-1.19922,0.59766 -2.23438,1.73048 -3.10156,3.39845c-0.86328,1.66798 -1.53125,3.23438 -2,4.69923c-1.26563,-2.59766 -2.29688,-5.31641 -3.09766,-8.14845c-2.80078,-9.93359 -2.68359,-19.81641 0.34766,-29.65234c3.16797,-9.76563 8.76953,-17.8828 16.80077,-24.34766c3.10156,-2.5664 7.05076,-4.94922 11.85155,-7.15234c4.8672,-2.16406 10.39845,-3.53125 16.59766,-4.09766c6.33594,-0.53515 12.83595,0.03125 19.5,1.69922c6.70312,1.73438 12.81641,4.76563 18.35154,9.10156c4.8672,3.89844 8.75,8.54688 11.64845,13.94922l-0.04689,0.14844c0.06642,0.03516 0.13281,0.05078 0.19922,0.05078c0.33203,0.63281 0.64845,1.26563 0.94922,1.89844c2.8672,6.30078 4.38281,12.70313 4.55078,19.20313c0.06642,1.56641 0.05078,3.13282 -0.05078,4.69923c-0.10155,1.5 -0.21483,3.06641 -0.35155,4.69922c-0.19922,3.16798 -0.13281,6.19923 0.20313,9.10155c0.69922,5.79688 2.19922,10.5 4.5,14.09766c-1.03516,-2.8672 -1.66797,-6.18359 -1.90233,-9.94923c1.19922,4.43359 4.16797,8.30078 8.90233,11.60155c-0.13672,0.09766 -0.63672,-0.58594 -1.5,-2.05077c-0.90233,-1.5 -1.41797,-4.3672 -1.55078,-8.60155"/>
  </g>
 </g>
</svg>
